<svg width="756" height="737" viewBox="0 0 756 737" fill="none" xmlns="http://www.w3.org/2000/svg">
<path d="M0 368.5C0 164.983 164.983 0 368.5 0H387.5C591.017 0 756 164.983 756 368.5V368.5C756 572.017 591.017 737 387.5 737H368.5C164.983 737 0 572.017 0 368.5V368.5Z" fill="#EEE7DE"/>
<path d="M158.904 335.592L154.872 337.32L145.784 324.2H140.408V362.536L147.64 364.328L145.336 369H121.72V364.904L127.736 360.168V324.2H122.488L113.4 337.32L109.432 335.592V317.544L114.36 318.696H153.912L158.904 317.544V335.592ZM205.218 369H189.922V348.904C189.922 346.984 189.623 345.619 189.026 344.808C188.471 343.997 187.49 343.592 186.082 343.592C184.077 343.592 182.05 344.168 180.002 345.32V362.472L185.762 364.328L183.458 369H162.466V364.904L168.162 360.04V326.376L162.466 322.6V318.504L175.458 313.128H180.002V339.624L186.658 334.248C187.81 333.907 189.154 333.736 190.69 333.736C194.061 333.736 196.749 334.632 198.754 336.424C200.759 338.173 201.762 340.563 201.762 343.592V362.472L207.522 364.328L205.218 369ZM232.393 333.736C237.001 333.736 240.564 335.485 243.081 338.984C245.641 342.44 246.878 347.325 246.793 353.64H223.945C224.414 355.901 225.289 357.715 226.569 359.08C227.849 360.403 229.513 361.064 231.561 361.064C234.59 361.064 239.006 359.763 244.809 357.16L246.729 361.128L237.513 368.552C234.825 369.277 231.604 369.64 227.849 369.64C224.649 369.64 221.769 368.915 219.209 367.464C216.649 365.971 214.644 363.944 213.193 361.384C211.785 358.824 211.081 355.965 211.081 352.808C211.081 349.395 212.19 346.237 214.409 343.336C216.628 340.392 219.401 338.067 222.729 336.36C226.057 334.611 229.278 333.736 232.393 333.736ZM228.937 341.736C227.188 341.736 225.865 342.333 224.969 343.528C224.116 344.68 223.646 346.472 223.561 348.904H234.953C234.697 346.472 234.121 344.68 233.225 343.528C232.329 342.333 230.9 341.736 228.937 341.736ZM301.149 317.416C303.709 317.416 306.696 317.736 310.109 318.376C313.522 319.016 316.018 319.699 317.597 320.424V334.376H310.493C307.293 328.403 302.941 325.416 297.437 325.416C295.218 325.416 293.192 326.141 291.357 327.592C289.522 329 288.072 330.963 287.005 333.48C285.938 335.997 285.405 338.813 285.405 341.928C285.405 345.469 285.938 348.712 287.005 351.656C288.072 354.557 289.693 356.883 291.869 358.632C294.088 360.339 296.818 361.192 300.061 361.192C304.029 361.192 309.661 359.229 316.957 355.304L319.709 359.72L307.933 368.872C305.97 369.427 304.093 369.789 302.301 369.96C300.509 370.173 298.568 370.28 296.477 370.28C291.613 370.28 287.282 369.192 283.485 367.016C279.73 364.84 276.808 361.853 274.717 358.056C272.626 354.216 271.581 349.864 271.581 345C271.581 340.008 273.138 335.4 276.253 331.176C279.368 326.909 283.25 323.56 287.901 321.128C292.552 318.653 296.968 317.416 301.149 317.416ZM346.768 333.736C350.011 333.736 352.912 334.483 355.472 335.976C358.032 337.427 360.016 339.453 361.424 342.056C362.875 344.616 363.6 347.453 363.6 350.568C363.6 353.939 362.491 357.096 360.272 360.04C358.053 362.984 355.259 365.331 351.888 367.08C348.56 368.787 345.339 369.64 342.224 369.64C339.024 369.64 336.144 368.915 333.584 367.464C331.024 365.971 329.019 363.944 327.568 361.384C326.16 358.824 325.456 355.965 325.456 352.808C325.456 349.395 326.565 346.237 328.784 343.336C331.003 340.392 333.776 338.067 337.104 336.36C340.432 334.611 343.653 333.736 346.768 333.736ZM343.056 341.736C341.52 341.736 340.325 342.419 339.472 343.784C338.661 345.107 338.256 347.091 338.256 349.736C338.256 353.192 338.917 356.051 340.24 358.312C341.605 360.531 343.504 361.64 345.936 361.64C347.515 361.64 348.709 360.957 349.52 359.592C350.373 358.227 350.8 356.221 350.8 353.576C350.8 350.12 350.117 347.283 348.752 345.064C347.429 342.845 345.531 341.736 343.056 341.736ZM397.911 357.16L400.471 351.4L404.503 352.552V370.152L398.871 369H371.031V364.456L389.975 346.216H378.007L375.575 351.336L371.607 350.184V333.224L377.175 334.376H405.079V338.92L386.199 357.16H397.911ZM449.895 338.472L433.383 369L417.831 385.896L413.286 382.44C416.401 378.685 418.577 375.443 419.815 372.712C421.095 369.981 421.841 366.909 422.055 363.496L415.015 346.344L408.614 342.632V338.536L423.719 333.16L426.151 342.824L432.935 359.144L440.231 345.192L430.887 339.048L433.191 334.376H449.895V338.472ZM513.54 369.064H472.004V364.968L478.02 360.232V325.096L470.852 323.304L473.156 318.696H496.772V322.728L490.692 327.464V363.496H504.451L514.5 349.096L518.532 350.76V370.216L513.54 369.064ZM563.639 369H548.407V363.816L541.815 369.192C540.663 369.533 539.319 369.704 537.783 369.704C534.412 369.704 531.724 368.829 529.719 367.08C527.714 365.288 526.711 362.877 526.711 359.848V346.6L521.015 343.336V339.304L534.071 333.672H538.551V354.536C538.551 356.456 538.828 357.821 539.383 358.632C539.98 359.443 541.004 359.848 542.455 359.848C544.418 359.848 546.423 359.272 548.471 358.12V346.6L542.775 343.336V339.304L555.767 333.672H560.311V362.472L566.007 364.328L563.639 369ZM606.944 369.064H593.76L584.992 356.84L579.808 361.576L585.44 364.456L583.135 369.128H568.032V365.032L581.92 352.808L573.792 342.248L567.392 339.112L569.696 334.44H582.88L591.904 346.472L596.832 341.928L591.072 339.048L593.44 334.376H608.48V338.472L594.656 350.632L602.08 360.232L609.248 364.392L606.944 369.064ZM634.143 333.736C638.751 333.736 642.314 335.485 644.831 338.984C647.391 342.44 648.628 347.325 648.543 353.64H625.695C626.164 355.901 627.039 357.715 628.319 359.08C629.599 360.403 631.263 361.064 633.311 361.064C636.34 361.064 640.756 359.763 646.559 357.16L648.479 361.128L639.263 368.552C636.575 369.277 633.354 369.64 629.599 369.64C626.399 369.64 623.519 368.915 620.959 367.464C618.399 365.971 616.394 363.944 614.943 361.384C613.535 358.824 612.831 355.965 612.831 352.808C612.831 349.395 613.94 346.237 616.159 343.336C618.378 340.392 621.151 338.067 624.479 336.36C627.807 334.611 631.028 333.736 634.143 333.736ZM630.687 341.736C628.938 341.736 627.615 342.333 626.719 343.528C625.866 344.68 625.396 346.472 625.311 348.904H636.703C636.447 346.472 635.871 344.68 634.975 343.528C634.079 342.333 632.65 341.736 630.687 341.736Z" fill="black"/>
</svg>
